<?xml version="1.0" encoding="UTF-8" standalone="no"?>
<!-- Created with Inkscape (http://www.inkscape.org/) -->

<svg
   version="1.1"
   id="svg2"
   xml:space="preserve"
   width="1440"
   height="2554.6667"
   viewBox="0 0 1440 2554.6667"
   sodipodi:docname="PROTOTIPO.ai.svg"
   inkscape:version="1.1.2 (76b9e6a115, 2022-02-25)"
   xmlns:inkscape="http://www.inkscape.org/namespaces/inkscape"
   xmlns:sodipodi="http://sodipodi.sourceforge.net/DTD/sodipodi-0.dtd"
   xmlns="http://www.w3.org/2000/svg"
   xmlns:svg="http://www.w3.org/2000/svg"><defs
     id="defs6"><clipPath
       clipPathUnits="userSpaceOnUse"
       id="clipPath18"><path
         d="M 0,1916 H 1080 V 0 H 0 Z"
         id="path16" /></clipPath><clipPath
       clipPathUnits="userSpaceOnUse"
       id="clipPath176"><path
         d="M 0,1916 H 1080 V 0 H 0 Z"
         id="path174" /></clipPath><clipPath
       clipPathUnits="userSpaceOnUse"
       id="clipPath190"><path
         d="M 0,1916 H 1080 V 0 H 0 Z"
         id="path188" /></clipPath></defs><sodipodi:namedview
     id="namedview4"
     pagecolor="#ffffff"
     bordercolor="#666666"
     borderopacity="1.0"
     inkscape:pageshadow="2"
     inkscape:pageopacity="0.0"
     inkscape:pagecheckerboard="0"
     showgrid="false"
     inkscape:zoom="0.1767767"
     inkscape:cx="-828.72914"
     inkscape:cy="992.77792"
     inkscape:window-width="1920"
     inkscape:window-height="949"
     inkscape:window-x="0"
     inkscape:window-y="28"
     inkscape:window-maximized="1"
     inkscape:current-layer="g8" /><g
     id="g8"
     inkscape:groupmode="layer"
     inkscape:label="PROTOTIPO"
     transform="matrix(1.3333333,0,0,-1.3333333,0,2554.6667)"><path
       d="M 0.00176857,1026.543 H 1080.026 v 889.4653 H 0.00176857 Z"
       style="fill:#760b1b;fill-opacity:1;fill-rule:nonzero;stroke:none;stroke-width:1.00198"
       id="path10" /><g
       id="g20"
       transform="matrix(1.0032894,0,0,1,1081.29,-8.9999)"><path
         d="m 0,0 h -1077.7416 v 1386.598 c 0,297.42 241.2599,538.526 538.86979,538.526 C -241.25993,1925.124 0,1684.018 0,1386.598 Z"
         style="fill:#fafaf9;fill-opacity:1;fill-rule:nonzero;stroke:none;stroke-width:1.00032"
         id="path22" /></g><g
       id="g24"
       transform="matrix(1.0042341,0,0,1,1081.29,1477.6631)"><path
         d="m 0,0 v -1486.663 h -1077.054 v 409.605 C -1077.054,-482.208 -594.85,0 0,0"
         style="fill:#ee9000;fill-opacity:1;fill-rule:nonzero;stroke:none"
         id="path26" /></g></g></svg>
